ply
format ascii 1.0
comment VCGLIB generated
element vertex 518
property float x
property float y
property float z
property float texture_u
property float texture_v
element face 768
property list uchar int vertex_indices
end_header
0 0 -1 0.38236 0.65564
0 1 -1 0.417406 0.540111
0.19509 0.980785 -1 0.439271 0.549168
0 0 1 0.608395 0.322384
0.195092 0.980785 1 0.536922 0.123895
2e-06 1 1 0.491988 0.139537
0.382683 0.92388 -1 0.458949 0.562316
0.382685 0.923879 1 0.5848 0.115949
0.55557 0.83147 -1 0.475684 0.579051
0.555572 0.831469 1 0.633897 0.11616
0.707107 0.707107 -1 0.488833 0.59873
0.707108 0.707105 1 0.681975 0.124415
0.83147 0.55557 -1 0.49789 0.620595
0.831471 0.555569 1 0.726819 0.140412
0.92388 0.382683 -1 0.502507 0.643807
0.92388 0.382682 1 0.766876 0.163398
0.980785 0.19509 -1 0.502507 0.667474
0.980786 0.195088 1 0.800708 0.192441
1 0 -1 0.49789 0.690686
1 -2e-06 1 0.827084 0.226417
0.980785 -0.19509 -1 0.488833 0.712551
0.980785 -0.195092 1 0.845021 0.264001
0.92388 -0.382683 -1 0.475684 0.732229
0.923879 -0.382685 1 0.853861 0.303753
0.83147 -0.55557 -1 0.45895 0.748964
0.831469 -0.555571 1 0.853291 0.344132
0.707107 -0.707107 -1 0.439271 0.762113
0.707106 -0.707107 1 0.84337 0.383586
0.55557 -0.83147 -1 0.417406 0.77117
0.55557 -0.83147 1 0.824548 0.420593
0.382683 -0.92388 -1 0.394194 0.775787
0.382684 -0.92388 1 0.797667 0.453729
0.19509 -0.980785 -1 0.370527 0.775787
0.195091 -0.980785 1 0.763338 0.481939
-0 -1 -1 0.347315 0.77117
1e-06 -1 1 0.723029 0.504223
-0.195091 -0.980785 -1 0.32545 0.762113
-0.195089 -0.980786 1 0.678585 0.519373
-0.382684 -0.923879 -1 0.305771 0.748964
-0.382682 -0.92388 1 0.631864 0.527019
-0.555571 -0.831469 -1 0.289037 0.732229
-0.555568 -0.831471 1 0.584276 0.526951
-0.707107 -0.707106 -1 0.275888 0.712551
-0.707105 -0.707109 1 0.537279 0.519192
-0.83147 -0.55557 -1 0.266831 0.690686
-0.831468 -0.555573 1 0.492805 0.503909
-0.92388 -0.382683 -1 0.262214 0.667474
-0.923878 -0.382686 1 0.45265 0.481633
-0.980785 -0.195089 -1 0.262214 0.643807
-0.980785 -0.195094 1 0.418411 0.453198
-1 1e-06 -1 0.266831 0.620595
-1 -4e-06 1 0.391429 0.419681
-0.980785 0.195091 -1 0.275888 0.59873
-0.980786 0.195086 1 0.372765 0.382369
-0.923879 0.382684 -1 0.289037 0.579051
-0.923881 0.382679 1 0.363149 0.34269
-0.831469 0.555571 -1 0.305772 0.562316
-0.831473 0.555566 1 0.362969 0.302181
-0.707106 0.707108 -1 0.32545 0.549168
-0.707111 0.707103 1 0.372246 0.26239
-0.555569 0.83147 -1 0.347315 0.540111
-0.555575 0.831466 1 0.390635 0.224855
-0.382682 0.92388 -1 0.370527 0.535494
-0.382689 0.923877 1 0.417443 0.191027
-0.195089 0.980786 -1 0.394194 0.535494
-0.195097 0.980784 1 0.451657 0.162214
-0.195097 0.980784 1 0.447948 0.157893
2e-06 1 1 0.489356 0.134684
-0.382689 0.923877 1 0.412801 0.187401
-0.555575 0.831466 1 0.385241 0.222061
-0.707111 0.707103 1 0.366309 0.260532
-0.831473 0.555566 1 0.356717 0.301331
-0.923881 0.382679 1 0.356824 0.34288
-0.980786 0.195086 1 0.36661 0.383587
-1 -4e-06 1 0.385681 0.421881
-0.980785 -0.195094 1 0.413291 0.456292
-0.923878 -0.382686 1 0.448354 0.4855
-0.831468 -0.555573 1 0.489496 0.508396
-0.707105 -0.707109 1 0.535079 0.524118
-0.555568 -0.831471 1 0.583254 0.532112
-0.382682 -0.92388 1 0.632046 0.532233
-0.195089 -0.980786 1 0.679968 0.524479
1e-06 -1 1 0.725591 0.509043
0.195091 -0.980785 1 0.766967 0.486255
0.382684 -0.92388 1 0.802209 0.457361
0.55557 -0.83147 1 0.82984 0.42341
0.707106 -0.707107 1 0.849232 0.385499
0.831469 -0.555571 1 0.859498 0.345057
0.923879 -0.382685 1 0.860172 0.303648
0.980785 -0.195092 1 0.851195 0.262868
1 -2e-06 1 0.832882 0.224293
0.980786 0.195088 1 0.805908 0.189409
0.92388 0.382682 1 0.771274 0.159564
0.831471 0.555569 1 0.730246 0.135917
0.707108 0.707105 1 0.684284 0.119412
0.555572 0.831469 1 0.634985 0.110858
0.382685 0.923879 1 0.584614 0.110581
0.195092 0.980785 1 0.535475 0.11869
2e-06 1 1 0.486726 0.129857
0.195092 0.980785 1 0.534023 0.11351
0.382685 0.923879 1 0.58441 0.105235
0.555572 0.831469 1 0.636061 0.105571
0.707108 0.707105 1 0.686588 0.114425
0.831471 0.555569 1 0.733658 0.131434
0.92388 0.382682 1 0.775654 0.155741
0.980786 0.195088 1 0.811086 0.186381
1 -2e-06 1 0.838659 0.222172
0.980785 -0.195092 1 0.857347 0.261732
0.923879 -0.382685 1 0.866463 0.303537
0.831469 -0.555571 1 0.865685 0.345973
0.707106 -0.707107 1 0.855076 0.387402
0.55557 -0.83147 1 0.835115 0.426215
0.382684 -0.92388 1 0.806749 0.460971
0.195091 -0.980785 1 0.770595 0.490548
1e-06 -1 1 0.728141 0.513849
-0.195089 -0.980786 1 0.681343 0.529567
-0.382682 -0.92388 1 0.632236 0.537429
-0.555568 -0.831471 1 0.582256 0.53725
-0.707105 -0.707109 1 0.532901 0.529024
-0.831468 -0.555573 1 0.486211 0.512867
-0.923878 -0.382686 1 0.444086 0.489356
-0.980785 -0.195094 1 0.4082 0.459379
-1 -4e-06 1 0.379963 0.424079
-0.980786 0.195086 1 0.360486 0.384808
-0.923881 0.382679 1 0.350529 0.343077
-0.831473 0.555566 1 0.350493 0.300492
-0.707111 0.707103 1 0.360396 0.258691
-0.555575 0.831466 1 0.379867 0.219286
-0.382689 0.923877 1 0.408174 0.183797
-0.195097 0.980784 1 0.444247 0.153597
-0.201432 1.01263 1 0.438971 0.148268
2e-06 1.03247 1 0.48279 0.123756
-0.395116 0.953877 1 0.401763 0.179439
-0.573616 0.858465 1 0.372569 0.216063
-0.730072 0.730064 1 0.352493 0.256726
-0.858472 0.573606 1 0.342291 0.299857
-0.953881 0.395105 1 0.342342 0.343795
-1.01263 0.201421 1 0.352629 0.38685
-1.03247 -4e-06 1 0.372739 0.427364
-1.01263 -0.201429 1 0.401887 0.463779
-0.953878 -0.395113 1 0.438925 0.494697
-0.858467 -0.573613 1 0.482398 0.518937
-0.730066 -0.730069 1 0.530578 0.535579
-0.573609 -0.85847 1 0.581499 0.544016
-0.395108 -0.95388 1 0.632963 0.544016
-0.201424 -1.01263 1 0.683573 0.53611
1e-06 -1.03247 1 0.731877 0.519964
0.201426 -1.01263 1 0.775858 0.496017
0.39511 -0.953879 1 0.812868 0.465253
0.57361 -0.858469 1 0.842229 0.429546
0.730067 -0.730068 1 0.862858 0.389523
0.858468 -0.573611 1 0.873828 0.346787
0.953879 -0.395111 1 0.874652 0.303006
1.01263 -0.201427 1 0.865265 0.259873
1.03247 -2e-06 1 0.846001 0.219052
1.01263 0.201423 1 0.81757 0.182116
0.95388 0.395108 1 0.78103 0.150488
0.85847 0.573609 1 0.737717 0.125382
0.730069 0.730066 1 0.689171 0.10778
0.573612 0.858468 1 0.636975 0.098443
0.395112 0.953879 1 0.58357 0.098275
0.201427 1.01263 1 0.531582 0.106863
0.201427 1.01263 1 0.54988 0.131229
2e-06 1.03247 1 0.506618 0.147688
2e-06 1.03247 1.1005 0.496732 0.12682
0.201427 1.01263 1.1005 0.543434 0.107625
0.395112 0.953879 1 0.596159 0.123184
0.395112 0.953879 1.1005 0.59468 0.098301
0.573612 0.858468 1 0.643178 0.124979
0.573612 0.858468 1.1005 0.647069 0.100323
0.730069 0.730066 1 0.688472 0.13673
0.730069 0.730066 1.1005 0.697539 0.113659
0.85847 0.573609 1 0.729744 0.15775
0.85847 0.573609 1.1005 0.743433 0.137432
0.95388 0.395108 1 0.765005 0.186784
0.95388 0.395108 1.1005 0.782503 0.170178
1.01263 0.201423 1 0.792662 0.222147
1.01263 0.201423 1.1005 0.812966 0.209974
1.03247 -2e-06 1 0.811597 0.261841
1.03247 -2e-06 1.1005 0.833567 0.254546
1.01263 -0.201427 1 0.821221 0.30367
1.01263 -0.201427 1.1005 0.843651 0.301406
0.953879 -0.395111 1 0.821512 0.34538
0.953879 -0.395111 1.1005 0.843199 0.347988
0.858468 -0.573611 1 0.813022 0.384788
0.858468 -0.573611 1.1005 0.832839 0.391806
0.730067 -0.730068 1 0.796865 0.419926
0.730067 -0.730068 1.1005 0.813829 0.430587
0.57361 -0.858469 1 0.774657 0.449202
0.57361 -0.858469 1.1005 0.788061 0.462431
0.39511 -0.953879 1 0.748132 0.471743
0.39511 -0.953879 1.1005 0.75813 0.486276
0.201426 -1.01263 1 0.720824 0.48707
0.201426 -1.01263 1.1005 0.727404 0.502782
1e-06 -1.03247 1 0.686872 0.495871
1e-06 -1.03247 1.1005 0.693053 0.515209
-0.201424 -1.01263 1 0.643522 0.509439
-0.201424 -1.01263 1.1005 0.649379 0.532045
-0.395108 -0.95388 1 0.597753 0.517707
-0.395108 -0.95388 1.1005 0.599658 0.542114
-0.573609 -0.85847 1 0.551032 0.516951
-0.573609 -0.85847 1.1005 0.547769 0.541472
-0.730066 -0.730069 1 0.505782 0.506356
-0.730066 -0.730069 1.1005 0.497319 0.529454
-0.858467 -0.573613 1 0.464403 0.486438
-0.858467 -0.573613 1.1005 0.45127 0.506845
-0.953878 -0.395113 1 0.428963 0.458454
-0.953878 -0.395113 1.1005 0.411998 0.475171
-1.01263 -0.201429 1 0.401081 0.424139
-1.01263 -0.201429 1.1005 0.381325 0.43644
-1.03247 -4e-06 1 0.381866 0.385547
-1.03247 -4e-06 1.1005 0.360492 0.393
-1.01263 0.201421 1 0.371863 0.344926
-1.01263 0.201421 1.1005 0.350106 0.347412
-0.953881 0.395105 1 0.371016 0.304574
-0.953881 0.395105 1.1005 0.350106 0.302301
-0.858472 0.573606 1 0.37866 0.266699
-0.858472 0.573606 1.1005 0.359744 0.260211
-0.730072 0.730064 1 0.393541 0.233239
-0.730072 0.730064 1.1005 0.377555 0.22345
-0.573616 0.858465 1 0.414124 0.205441
-0.573616 0.858465 1.1005 0.40119 0.193632
-0.395116 0.953877 1 0.437037 0.184569
-0.395116 0.953877 1.1005 0.427203 0.170832
-0.201432 1.01263 1 0.467439 0.168754
-0.201432 1.01263 1.1005 0.457672 0.15142
1e-06 -1.03247 1.1005 0.78047 0.498674
0 0 1.1005 0.607021 0.324338
-0.201424 -1.01263 1.1005 0.81837 0.467412
0.201426 -1.01263 1.1005 0.735905 0.523236
0.39511 -0.953879 1.1005 0.686388 0.540155
0.57361 -0.858469 1.1005 0.63382 0.545678
0.730067 -0.730068 1.1005 0.580222 0.547516
0.858468 -0.573611 1.1005 0.527655 0.540155
0.953879 -0.395111 1.1005 0.478137 0.523236
1.01263 -0.201427 1.1005 0.433572 0.498674
1.03247 -2e-06 1.1005 0.395673 0.467412
1.01263 0.201423 1.1005 0.365895 0.430652
0.95388 0.395108 1.1005 0.345385 0.389806
0.85847 0.573609 1.1005 0.334928 0.346444
0.730069 0.730066 1.1005 0.334928 0.302233
0.573612 0.858468 1.1005 0.345384 0.258872
0.395112 0.953879 1.1005 0.365895 0.218026
0.201427 1.01263 1.1005 0.395672 0.181265
2e-06 1.03247 1.1005 0.433571 0.150003
-0.201432 1.01263 1.1005 0.478138 0.12544
-0.395116 0.953877 1.1005 0.527656 0.108522
-0.573616 0.858465 1.1005 0.580224 0.099897
-0.730072 0.730064 1.1005 0.633821 0.099897
-0.858472 0.573606 1.1005 0.686389 0.108522
-0.953881 0.395105 1.1005 0.735906 0.125441
-1.01263 0.201421 1.1005 0.780471 0.150003
-1.03247 -4e-06 1.1005 0.81837 0.181265
-1.01263 -0.201429 1.1005 0.848147 0.218026
-0.953878 -0.395113 1.1005 0.868658 0.258872
-0.858467 -0.573613 1.1005 0.879114 0.302233
-0.730066 -0.730069 1.1005 0.879114 0.346444
-0.573609 -0.85847 1.1005 0.868658 0.389806
-0.395108 -0.95388 1.1005 0.848147 0.430652
0.19367 0.973646 -0.993143 0.27998 0.294587
0 0.992721 -0.993143 0.272675 0.295997
0 0 -0.99 0.267812 0.257613
2e-06 0.992721 0.993143 0.474857 0.122248
0.193672 0.973646 0.993143 0.52465 0.105263
0 0 0.99 0.604455 0.321935
0.379898 0.917155 -0.993143 0.286941 0.291743
0.3799 0.917154 0.993143 0.577509 0.096604
0.551527 0.825417 -0.993143 0.293267 0.287554
0.551528 0.825416 0.993143 0.631404 0.096604
0.70196 0.70196 -0.993143 0.298695 0.282164
0.701961 0.701959 0.993143 0.684263 0.105264
0.825418 0.551526 -0.993143 0.302994 0.275772
0.825419 0.551525 0.993143 0.734056 0.12225
0.917155 0.379898 -0.993143 0.30598 0.268616
0.917156 0.379896 0.993143 0.778867 0.14691
0.973646 0.19367 -0.993143 0.30752 0.260967
0.973647 0.193668 0.993143 0.816976 0.178296
0.992721 0 -0.993143 0.307538 0.253117
0.992721 -2e-06 0.993143 0.846918 0.215202
0.973646 -0.19367 -0.993143 0.306014 0.245365
0.973646 -0.193672 0.993143 0.867543 0.256209
0.917155 -0.379898 -0.993143 0.302988 0.238008
0.917154 -0.379899 0.993143 0.878057 0.299743
0.825418 -0.551526 -0.993143 0.298554 0.23133
0.825417 -0.551527 0.993143 0.878056 0.344129
0.70196 -0.70196 -0.993143 0.292855 0.225594
0.70196 -0.701961 0.993143 0.867542 0.387662
0.551526 -0.825418 -0.993143 0.286081 0.221029
0.551526 -0.825418 0.993143 0.846917 0.42867
0.379898 -0.917155 -0.993143 0.278366 0.218335
0.379898 -0.917155 0.993143 0.816974 0.465575
0.19367 -0.973646 -0.993143 0.270347 0.217202
0.193671 -0.973646 0.993143 0.778865 0.496961
-0 -0.992721 -0.993143 0.262322 0.217647
1e-06 -0.992721 0.993143 0.734053 0.52162
-0.193671 -0.973646 -0.993143 0.254585 0.219632
-0.193669 -0.973647 0.993143 0.684261 0.538606
-0.379898 -0.917155 -0.993143 0.24742 0.223067
-0.379896 -0.917155 0.993143 0.631402 0.547265
-0.551527 -0.825417 -0.993143 0.241089 0.227811
-0.551525 -0.825419 0.993143 0.577507 0.547265
-0.701961 -0.701959 -0.993143 0.235825 0.233674
-0.701958 -0.701962 0.993143 0.524648 0.538606
-0.825418 -0.551526 -0.993143 0.231818 0.240427
-0.825416 -0.551529 0.993143 0.474856 0.52162
-0.917155 -0.379897 -0.993143 0.229215 0.247808
-0.917153 -0.379901 0.993143 0.430044 0.49696
-0.973647 -0.193669 -0.993143 0.228105 0.255532
-0.973646 -0.193674 0.993143 0.391935 0.465575
-0.992721 1e-06 -0.993143 0.228523 0.2633
-0.992721 -4e-06 0.993143 0.361992 0.428669
-0.973646 0.193671 -0.993143 0.230445 0.270812
-0.973647 0.193666 0.993143 0.341368 0.387661
-0.917154 0.379899 -0.993143 0.233787 0.277777
-0.917157 0.379893 0.993143 0.330853 0.344128
-0.825417 0.551528 -0.993143 0.238407 0.28393
-0.82542 0.551522 0.993143 0.330853 0.299742
-0.701959 0.701961 -0.993143 0.244115 0.289036
-0.701964 0.701956 0.993143 0.341367 0.256209
-0.551525 0.825418 -0.993143 0.250675 0.292904
-0.551532 0.825414 0.993143 0.361992 0.215201
-0.379897 0.917155 -0.993143 0.257818 0.295396
-0.379904 0.917152 0.993143 0.391934 0.178295
-0.193669 0.973647 -0.993143 0.265252 0.296433
-0.193677 0.973645 0.993143 0.430044 0.146909
0.193672 0.973646 0.993143 0.356393 0.52118
2e-06 0.992721 0.993143 0.302376 0.535494
0.3799 0.917154 0.993143 0.405926 0.496667
0.551528 0.825416 0.993143 0.449147 0.463184
0.701961 0.701959 0.993143 0.484531 0.422259
0.825419 0.551525 0.993143 0.5109 0.37566
0.917156 0.379896 0.993143 0.527455 0.325313
0.973647 0.193668 0.993143 0.533793 0.273233
0.992721 -2e-06 0.993143 0.529913 0.221439
0.973646 -0.193672 0.993143 0.516201 0.171884
0.917154 -0.379899 0.993143 0.493406 0.126374
0.825417 -0.551527 0.993143 0.462595 0.086511
0.70196 -0.701961 0.993143 0.42511 0.053631
0.551526 -0.825418 0.993143 0.382626 0.028819
0.379898 -0.917155 0.993143 0.337222 0.010137
0.193671 -0.973646 0.993143 0.288588 0.000328
1e-06 -0.992721 0.993143 0.238609 0
-0.193669 -0.973647 0.993143 0.189143 0.009339
-0.379896 -0.917155 0.993143 0.142074 0.028161
-0.551525 -0.825419 0.993143 0.099231 0.055909
-0.701958 -0.701962 0.993143 0.062322 0.091667
-0.825416 -0.551529 0.993143 0.032855 0.134191
-0.917153 -0.379901 0.993143 0.012081 0.181951
-0.973646 -0.193674 0.993143 0.000936 0.233183
-0.992721 -4e-06 0.993143 0 0.285957
-0.973647 0.193666 0.993143 0.009468 0.338246
-0.917157 0.379893 0.993143 0.029134 0.388003
-0.82542 0.551522 0.993143 0.058392 0.433241
-0.701964 0.701956 0.993143 0.096251 0.472108
-0.551532 0.825414 0.993143 0.141362 0.50296
-0.379904 0.917152 0.993143 0.192064 0.524433
-0.193677 0.973645 0.993143 0.24644 0.535494
-0.193718 0.973849 0.992929 0.477353 0.129785
-0.193677 0.973645 0.993143 0.47453 0.124754
2e-06 0.992721 0.993143 0.522695 0.107487
2e-06 0.992929 0.992929 0.524688 0.112896
-0.379984 0.917344 0.992929 0.435308 0.153631
-0.379904 0.917152 0.993143 0.431069 0.149261
-0.551647 0.825587 0.992929 0.39821 0.18321
-0.551532 0.825414 0.993143 0.392753 0.179782
-0.702111 0.702103 0.992929 0.367949 0.219402
-0.701964 0.701956 0.993143 0.361776 0.216692
-0.825593 0.551637 0.992929 0.349308 0.260263
-0.82542 0.551522 0.993143 0.342811 0.258695
-0.917349 0.379973 0.992929 0.33885 0.302846
-0.917157 0.379893 0.993143 0.331977 0.302339
-0.973851 0.193706 0.992929 0.340199 0.346298
-0.973647 0.193666 0.993143 0.333464 0.346612
-0.992929 -4e-06 0.992929 0.351123 0.388167
-0.992721 -4e-06 0.993143 0.344588 0.389541
-0.97385 -0.193715 0.992929 0.371456 0.427246
-0.973646 -0.193674 0.993143 0.365386 0.429657
-0.917345 -0.379981 0.992929 0.400363 0.461853
-0.917153 -0.379901 0.993143 0.395166 0.465398
-0.825589 -0.551644 0.992929 0.435692 0.492405
-0.825416 -0.551529 0.993143 0.431696 0.496929
-0.702105 -0.702109 0.992929 0.4793 0.516746
-0.701958 -0.701962 0.993143 0.476115 0.521844
-0.55164 -0.825592 0.992929 0.527831 0.532414
-0.551525 -0.825419 0.993143 0.525665 0.537675
-0.379976 -0.917347 0.992929 0.577557 0.539349
-0.379896 -0.917155 0.993143 0.576999 0.544861
-0.19371 -0.973851 0.992929 0.627563 0.539553
-0.193669 -0.973647 0.993143 0.628555 0.544971
1e-06 -0.992929 0.992929 0.677786 0.531898
1e-06 -0.992721 0.993143 0.679719 0.537294
0.193711 -0.97385 0.992929 0.725216 0.515153
0.193671 -0.973646 0.993143 0.72802 0.520188
0.379978 -0.917347 0.992929 0.767228 0.49144
0.379898 -0.917155 0.993143 0.771446 0.495814
0.551642 -0.825591 0.992929 0.804244 0.462144
0.551526 -0.825418 0.993143 0.809649 0.465534
0.702106 -0.702107 0.992929 0.834235 0.426023
0.70196 -0.701961 0.993143 0.840364 0.428744
0.82559 -0.551643 0.992929 0.853476 0.38531
0.825417 -0.551527 0.993143 0.859811 0.387147
0.917346 -0.379979 0.992929 0.862053 0.343897
0.917154 -0.379899 0.993143 0.868683 0.344409
0.97385 -0.193713 0.992929 0.862849 0.302015
0.973646 -0.193672 0.993143 0.869431 0.301225
0.992929 -2e-06 0.992929 0.853775 0.259722
0.992721 -2e-06 0.993143 0.860308 0.258107
0.973851 0.193709 0.992929 0.833536 0.220023
0.973647 0.193668 0.993143 0.839633 0.217667
0.917348 0.379976 0.992929 0.804944 0.184728
0.917156 0.379896 0.993143 0.810211 0.181216
0.825592 0.55164 0.992929 0.769791 0.153806
0.825419 0.551525 0.993143 0.773869 0.14931
0.702108 0.702106 0.992929 0.726542 0.128772
0.701961 0.701959 0.993143 0.729867 0.123658
0.551643 0.825589 0.992929 0.67732 0.112146
0.551528 0.825416 0.993143 0.6796 0.106778
0.379979 0.917346 0.992929 0.626378 0.1049
0.3799 0.917154 0.993143 0.626953 0.099256
0.193713 0.97385 0.992929 0.575314 0.104755
0.193672 0.973646 0.993143 0.574262 0.099256
2e-06 1 1.01 0.526636 0.118184
0.195092 0.980785 1.01 0.575806 0.110138
0.382685 0.923879 1.01 0.62569 0.110294
0.555572 0.831469 1.01 0.675496 0.117489
0.707108 0.707105 1.01 0.723322 0.133745
0.831471 0.555569 1.01 0.76548 0.157981
0.92388 0.382682 1.01 0.799978 0.188176
0.980786 0.195088 1.01 0.827745 0.222644
1 -2e-06 1.01 0.847404 0.261217
0.980785 -0.195092 1.01 0.856411 0.302363
0.923879 -0.382685 1.01 0.855701 0.343301
0.831469 -0.555571 1.01 0.847164 0.383831
0.707106 -0.707107 1.01 0.828281 0.423376
0.55557 -0.83147 1.01 0.799221 0.458564
0.382684 -0.92388 1.01 0.763087 0.487315
0.195091 -0.980785 1.01 0.722035 0.510471
1e-06 -1 1.01 0.675883 0.526627
-0.195089 -0.980786 1.01 0.627108 0.534245
-0.382682 -0.92388 1.01 0.578223 0.534074
-0.555568 -0.831471 1.01 0.529556 0.52717
-0.707105 -0.707109 1.01 0.482405 0.511798
-0.831468 -0.555573 1.01 0.439914 0.488201
-0.923878 -0.382686 1.01 0.40526 0.458367
-0.980785 -0.195094 1.01 0.377101 0.424533
-1 -4e-06 1.01 0.357311 0.386416
-0.980786 0.195086 1.01 0.346773 0.345636
-0.923881 0.382679 1.01 0.345513 0.303417
-0.831473 0.555566 1.01 0.355556 0.261883
-0.707111 0.707103 1.01 0.373985 0.222062
-0.555575 0.831466 1.01 0.403384 0.18677
-0.382689 0.923877 1.01 0.439487 0.157772
-0.195097 0.980784 1.01 0.480559 0.134461
-0.200012 1.00549 1.00686 0.483722 0.139229
2e-06 1.02519 1.00686 0.528497 0.123242
-0.392331 0.947152 1.00686 0.443612 0.161982
-0.569572 0.852413 1.00686 0.408462 0.190353
-0.724925 0.724917 1.00686 0.380195 0.224795
-0.85242 0.569562 1.00686 0.361919 0.26345
-0.947157 0.39232 1.00686 0.352181 0.303922
-1.00549 0.200001 1.00686 0.353321 0.344996
-1.02519 -4e-06 1.00686 0.363575 0.384756
-1.00549 -0.200009 1.00686 0.382807 0.421913
-0.947153 -0.392327 1.00686 0.410075 0.455057
-0.852415 -0.569569 1.00686 0.444306 0.483819
-0.724919 -0.724923 1.00686 0.485507 0.506884
-0.569565 -0.852418 1.00686 0.53132 0.521887
-0.392323 -0.947155 1.00686 0.578797 0.528768
-0.200004 -1.00549 1.00686 0.626556 0.529056
1e-06 -1.02519 1.00686 0.673979 0.521409
0.200006 -1.00549 1.00686 0.718896 0.505694
0.392325 -0.947155 1.00686 0.759001 0.48312
0.569567 -0.852417 1.00686 0.794138 0.454971
0.724921 -0.724922 1.00686 0.822142 0.420644
0.852416 -0.569568 1.00686 0.840808 0.382316
0.947154 -0.392326 1.00686 0.849531 0.342813
1.00549 -0.200007 1.00686 0.849923 0.302825
1.02519 -2e-06 1.00686 0.841054 0.262816
1.00549 0.200003 1.00686 0.821986 0.225259
0.947155 0.392322 1.00686 0.794914 0.191584
0.852418 0.569565 1.00686 0.761151 0.162204
0.724922 0.72492 1.00686 0.720137 0.138695
0.569568 0.852416 1.00686 0.673591 0.123054
0.392326 0.947154 1.00686 0.625092 0.115723
0.200007 1.00549 1.00686 0.576394 0.115577
2e-06 1.02519 1.09364 0.534795 0.139736
0.200007 1.00549 1.09364 0.578595 0.132696
0.392326 0.947154 1.09364 0.623453 0.132887
0.569568 0.852416 1.09364 0.667948 0.139935
0.724922 0.72492 1.09364 0.710271 0.154322
0.852418 0.569565 1.09364 0.747785 0.175627
0.947155 0.392322 1.09364 0.779055 0.202504
1.00549 0.200003 1.09364 0.803911 0.23357
1.02519 -2e-06 1.09364 0.82119 0.267966
1.00549 -0.200007 1.09364 0.829494 0.304517
0.947154 -0.392326 1.09364 0.829217 0.34139
0.852416 -0.569568 1.09364 0.820815 0.377687
0.724921 -0.724922 1.09364 0.803504 0.412547
0.569567 -0.852417 1.09364 0.77801 0.443874
0.392325 -0.947155 1.09364 0.745898 0.469979
0.200006 -1.00549 1.09364 0.708911 0.490697
1e-06 -1.02519 1.09364 0.667812 0.505033
-0.200004 -1.00549 1.09364 0.624422 0.512113
-0.392323 -0.947155 1.09364 0.580356 0.511952
-0.569565 -0.852418 1.09364 0.53672 0.505274
-0.724919 -0.724923 1.09364 0.495018 0.491337
-0.852415 -0.569569 1.09364 0.457379 0.47035
-0.947153 -0.392327 1.09364 0.425733 0.444012
-1.00549 -0.200009 1.09364 0.40069 0.413474
-1.02519 -4e-06 1.09364 0.383171 0.37934
-1.00549 0.200001 1.09364 0.373885 0.342809
-0.947157 0.39232 1.09364 0.373174 0.305269
-0.85242 0.569562 1.09364 0.382035 0.268164
-0.724925 0.724917 1.09364 0.399063 0.232923
-0.569572 0.852413 1.09364 0.424666 0.20145
-0.392331 0.947152 1.09364 0.456812 0.175132
-0.200012 1.00549 1.09364 0.493795 0.15422
0 0 1.0905 0.601732 0.322744
3 0 1 2 
3 3 4 5 
3 0 2 6 
3 3 7 4 
3 0 6 8 
3 3 9 7 
3 0 8 10 
3 3 11 9 
3 0 10 12 
3 3 13 11 
3 0 12 14 
3 3 15 13 
3 0 14 16 
3 3 17 15 
3 0 16 18 
3 3 19 17 
3 0 18 20 
3 3 21 19 
3 0 20 22 
3 3 23 21 
3 0 22 24 
3 3 25 23 
3 0 24 26 
3 3 27 25 
3 0 26 28 
3 3 29 27 
3 0 28 30 
3 3 31 29 
3 0 30 32 
3 3 33 31 
3 0 32 34 
3 3 35 33 
3 0 34 36 
3 3 37 35 
3 0 36 38 
3 3 39 37 
3 0 38 40 
3 3 41 39 
3 0 40 42 
3 3 43 41 
3 0 42 44 
3 3 45 43 
3 0 44 46 
3 3 47 45 
3 0 46 48 
3 3 49 47 
3 0 48 50 
3 3 51 49 
3 0 50 52 
3 3 53 51 
3 0 52 54 
3 3 55 53 
3 0 54 56 
3 3 57 55 
3 0 56 58 
3 3 59 57 
3 0 58 60 
3 3 61 59 
3 0 60 62 
3 3 63 61 
3 0 62 64 
3 3 65 63 
3 64 1 0 
3 3 5 65 
3 5 65 66 
3 5 66 67 
3 65 63 68 
3 65 68 66 
3 63 61 69 
3 63 69 68 
3 61 59 70 
3 61 70 69 
3 59 57 71 
3 59 71 70 
3 57 55 72 
3 57 72 71 
3 55 53 73 
3 55 73 72 
3 53 51 74 
3 53 74 73 
3 51 49 75 
3 51 75 74 
3 49 47 76 
3 49 76 75 
3 47 45 77 
3 47 77 76 
3 45 43 78 
3 45 78 77 
3 43 41 79 
3 43 79 78 
3 41 39 80 
3 41 80 79 
3 39 37 81 
3 39 81 80 
3 37 35 82 
3 37 82 81 
3 35 33 83 
3 35 83 82 
3 33 31 84 
3 33 84 83 
3 31 29 85 
3 31 85 84 
3 29 27 86 
3 29 86 85 
3 27 25 87 
3 27 87 86 
3 25 23 88 
3 25 88 87 
3 23 21 89 
3 23 89 88 
3 21 19 90 
3 21 90 89 
3 19 17 91 
3 19 91 90 
3 17 15 92 
3 17 92 91 
3 15 13 93 
3 15 93 92 
3 13 11 94 
3 13 94 93 
3 11 9 95 
3 11 95 94 
3 9 7 96 
3 9 96 95 
3 7 4 97 
3 7 97 96 
3 4 5 67 
3 4 67 97 
3 97 67 98 
3 97 98 99 
3 96 97 99 
3 96 99 100 
3 95 96 100 
3 95 100 101 
3 94 95 101 
3 94 101 102 
3 93 94 102 
3 93 102 103 
3 92 93 103 
3 92 103 104 
3 91 92 104 
3 91 104 105 
3 90 91 105 
3 90 105 106 
3 89 90 106 
3 89 106 107 
3 88 89 107 
3 88 107 108 
3 87 88 108 
3 87 108 109 
3 86 87 109 
3 86 109 110 
3 85 86 110 
3 85 110 111 
3 84 85 111 
3 84 111 112 
3 83 84 112 
3 83 112 113 
3 82 83 113 
3 82 113 114 
3 81 82 114 
3 81 114 115 
3 80 81 115 
3 80 115 116 
3 79 80 116 
3 79 116 117 
3 78 79 117 
3 78 117 118 
3 77 78 118 
3 77 118 119 
3 76 77 119 
3 76 119 120 
3 75 76 120 
3 75 120 121 
3 74 75 121 
3 74 121 122 
3 73 74 122 
3 73 122 123 
3 72 73 123 
3 72 123 124 
3 71 72 124 
3 71 124 125 
3 70 71 125 
3 70 125 126 
3 69 70 126 
3 69 126 127 
3 68 69 127 
3 68 127 128 
3 66 68 128 
3 66 128 129 
3 67 66 129 
3 67 129 98 
3 98 129 130 
3 98 130 131 
3 129 128 132 
3 129 132 130 
3 128 127 133 
3 128 133 132 
3 127 126 134 
3 127 134 133 
3 126 125 135 
3 126 135 134 
3 125 124 136 
3 125 136 135 
3 124 123 137 
3 124 137 136 
3 123 122 138 
3 123 138 137 
3 122 121 139 
3 122 139 138 
3 121 120 140 
3 121 140 139 
3 120 119 141 
3 120 141 140 
3 119 118 142 
3 119 142 141 
3 118 117 143 
3 118 143 142 
3 117 116 144 
3 117 144 143 
3 116 115 145 
3 116 145 144 
3 115 114 146 
3 115 146 145 
3 114 113 147 
3 114 147 146 
3 113 112 148 
3 113 148 147 
3 112 111 149 
3 112 149 148 
3 111 110 150 
3 111 150 149 
3 110 109 151 
3 110 151 150 
3 109 108 152 
3 109 152 151 
3 108 107 153 
3 108 153 152 
3 107 106 154 
3 107 154 153 
3 106 105 155 
3 106 155 154 
3 105 104 156 
3 105 156 155 
3 104 103 157 
3 104 157 156 
3 103 102 158 
3 103 158 157 
3 102 101 159 
3 102 159 158 
3 101 100 160 
3 101 160 159 
3 100 99 161 
3 100 161 160 
3 99 98 131 
3 99 131 161 
3 162 163 164 
3 162 164 165 
3 166 162 165 
3 166 165 167 
3 168 166 167 
3 168 167 169 
3 170 168 169 
3 170 169 171 
3 172 170 171 
3 172 171 173 
3 174 172 173 
3 174 173 175 
3 176 174 175 
3 176 175 177 
3 178 176 177 
3 178 177 179 
3 180 178 179 
3 180 179 181 
3 182 180 181 
3 182 181 183 
3 184 182 183 
3 184 183 185 
3 186 184 185 
3 186 185 187 
3 188 186 187 
3 188 187 189 
3 190 188 189 
3 190 189 191 
3 192 190 191 
3 192 191 193 
3 194 192 193 
3 194 193 195 
3 196 194 195 
3 196 195 197 
3 198 196 197 
3 198 197 199 
3 200 198 199 
3 200 199 201 
3 202 200 201 
3 202 201 203 
3 204 202 203 
3 204 203 205 
3 206 204 205 
3 206 205 207 
3 208 206 207 
3 208 207 209 
3 210 208 209 
3 210 209 211 
3 212 210 211 
3 212 211 213 
3 214 212 213 
3 214 213 215 
3 216 214 215 
3 216 215 217 
3 218 216 217 
3 218 217 219 
3 220 218 219 
3 220 219 221 
3 222 220 221 
3 222 221 223 
3 224 222 223 
3 224 223 225 
3 163 224 225 
3 163 225 164 
3 226 227 228 
3 229 227 226 
3 230 227 229 
3 231 227 230 
3 232 227 231 
3 233 227 232 
3 234 227 233 
3 235 227 234 
3 236 227 235 
3 237 227 236 
3 238 227 237 
3 239 227 238 
3 240 227 239 
3 241 227 240 
3 242 227 241 
3 243 227 242 
3 244 227 243 
3 244 245 227 
3 246 227 245 
3 247 227 246 
3 248 227 247 
3 249 227 248 
3 250 227 249 
3 251 227 250 
3 252 227 251 
3 253 227 252 
3 254 227 253 
3 255 227 254 
3 256 227 255 
3 257 227 256 
3 258 227 257 
3 228 227 258 
3 259 260 261 
3 262 263 264 
3 265 259 261 
3 263 266 264 
3 267 265 261 
3 266 268 264 
3 269 267 261 
3 268 270 264 
3 271 269 261 
3 270 272 264 
3 273 271 261 
3 272 274 264 
3 275 273 261 
3 274 276 264 
3 277 275 261 
3 276 278 264 
3 279 277 261 
3 278 280 264 
3 281 279 261 
3 280 282 264 
3 283 281 261 
3 282 284 264 
3 285 283 261 
3 284 286 264 
3 287 285 261 
3 286 288 264 
3 289 287 261 
3 288 290 264 
3 291 289 261 
3 290 292 264 
3 293 291 261 
3 292 294 264 
3 295 293 261 
3 294 296 264 
3 297 295 261 
3 296 298 264 
3 299 297 261 
3 298 300 264 
3 301 299 261 
3 300 302 264 
3 303 301 261 
3 302 304 264 
3 305 303 261 
3 304 306 264 
3 307 305 261 
3 306 308 264 
3 309 307 261 
3 308 310 264 
3 311 309 261 
3 310 312 264 
3 313 311 261 
3 312 314 264 
3 315 313 261 
3 314 316 264 
3 317 315 261 
3 316 318 264 
3 319 317 261 
3 318 320 264 
3 321 319 261 
3 320 322 264 
3 323 321 261 
3 322 324 264 
3 261 260 323 
3 324 262 264 
3 325 326 260 
3 325 260 259 
3 327 325 259 
3 327 259 265 
3 328 327 265 
3 328 265 267 
3 329 328 267 
3 329 267 269 
3 330 329 269 
3 330 269 271 
3 331 330 271 
3 331 271 273 
3 332 331 273 
3 332 273 275 
3 333 332 275 
3 333 275 277 
3 334 333 277 
3 334 277 279 
3 335 334 279 
3 335 279 281 
3 336 335 281 
3 336 281 283 
3 337 336 283 
3 337 283 285 
3 338 337 285 
3 338 285 287 
3 339 338 287 
3 339 287 289 
3 340 339 289 
3 340 289 291 
3 341 340 291 
3 341 291 293 
3 342 341 293 
3 342 293 295 
3 343 342 295 
3 343 295 297 
3 344 343 297 
3 344 297 299 
3 345 344 299 
3 345 299 301 
3 346 345 301 
3 346 301 303 
3 347 346 303 
3 347 303 305 
3 348 347 305 
3 348 305 307 
3 349 348 307 
3 349 307 309 
3 350 349 309 
3 350 309 311 
3 351 350 311 
3 351 311 313 
3 352 351 313 
3 352 313 315 
3 353 352 315 
3 353 315 317 
3 354 353 317 
3 354 317 319 
3 355 354 319 
3 355 319 321 
3 356 355 321 
3 356 321 323 
3 323 260 326 
3 323 326 356 
3 357 358 359 
3 357 359 360 
3 361 362 358 
3 361 358 357 
3 363 364 362 
3 363 362 361 
3 365 366 364 
3 365 364 363 
3 367 368 366 
3 367 366 365 
3 369 370 368 
3 369 368 367 
3 371 372 370 
3 371 370 369 
3 373 374 372 
3 373 372 371 
3 375 376 374 
3 375 374 373 
3 377 378 376 
3 377 376 375 
3 379 380 378 
3 379 378 377 
3 381 382 380 
3 381 380 379 
3 383 384 382 
3 383 382 381 
3 385 386 384 
3 385 384 383 
3 387 388 386 
3 387 386 385 
3 389 390 388 
3 389 388 387 
3 391 392 390 
3 391 390 389 
3 393 394 392 
3 393 392 391 
3 395 396 394 
3 395 394 393 
3 397 398 396 
3 397 396 395 
3 399 400 398 
3 399 398 397 
3 401 402 400 
3 401 400 399 
3 403 404 402 
3 403 402 401 
3 405 406 404 
3 405 404 403 
3 407 408 406 
3 407 406 405 
3 409 410 408 
3 409 408 407 
3 411 412 410 
3 411 410 409 
3 413 414 412 
3 413 412 411 
3 415 416 414 
3 415 414 413 
3 417 418 416 
3 417 416 415 
3 419 420 418 
3 419 418 417 
3 360 359 420 
3 360 420 419 
3 421 360 419 
3 421 419 422 
3 422 419 417 
3 422 417 423 
3 423 417 415 
3 423 415 424 
3 424 415 413 
3 424 413 425 
3 425 413 411 
3 425 411 426 
3 426 411 409 
3 426 409 427 
3 427 409 407 
3 427 407 428 
3 428 407 405 
3 428 405 429 
3 429 405 403 
3 429 403 430 
3 430 403 401 
3 430 401 431 
3 431 401 399 
3 431 399 432 
3 432 399 397 
3 432 397 433 
3 433 397 395 
3 433 395 434 
3 434 395 393 
3 434 393 435 
3 435 393 391 
3 435 391 436 
3 436 391 389 
3 436 389 437 
3 437 389 387 
3 437 387 438 
3 438 387 385 
3 438 385 439 
3 439 385 383 
3 439 383 440 
3 440 383 381 
3 440 381 441 
3 441 381 379 
3 441 379 442 
3 442 379 377 
3 442 377 443 
3 443 377 375 
3 443 375 444 
3 444 375 373 
3 444 373 445 
3 445 373 371 
3 445 371 446 
3 446 371 369 
3 446 369 447 
3 447 369 367 
3 447 367 448 
3 448 367 365 
3 448 365 449 
3 449 365 363 
3 449 363 450 
3 450 363 361 
3 450 361 451 
3 451 361 357 
3 451 357 452 
3 452 357 360 
3 452 360 421 
3 453 452 421 
3 453 421 454 
3 455 451 452 
3 455 452 453 
3 456 450 451 
3 456 451 455 
3 457 449 450 
3 457 450 456 
3 458 448 449 
3 458 449 457 
3 459 447 448 
3 459 448 458 
3 460 446 447 
3 460 447 459 
3 461 445 446 
3 461 446 460 
3 462 444 445 
3 462 445 461 
3 463 443 444 
3 463 444 462 
3 464 442 443 
3 464 443 463 
3 465 441 442 
3 465 442 464 
3 466 440 441 
3 466 441 465 
3 467 439 440 
3 467 440 466 
3 468 438 439 
3 468 439 467 
3 469 437 438 
3 469 438 468 
3 470 436 437 
3 470 437 469 
3 471 435 436 
3 471 436 470 
3 472 434 435 
3 472 435 471 
3 473 433 434 
3 473 434 472 
3 474 432 433 
3 474 433 473 
3 475 431 432 
3 475 432 474 
3 476 430 431 
3 476 431 475 
3 477 429 430 
3 477 430 476 
3 478 428 429 
3 478 429 477 
3 479 427 428 
3 479 428 478 
3 480 426 427 
3 480 427 479 
3 481 425 426 
3 481 426 480 
3 482 424 425 
3 482 425 481 
3 483 423 424 
3 483 424 482 
3 484 422 423 
3 484 423 483 
3 454 421 422 
3 454 422 484 
3 485 454 484 
3 485 484 486 
3 486 484 483 
3 486 483 487 
3 487 483 482 
3 487 482 488 
3 488 482 481 
3 488 481 489 
3 489 481 480 
3 489 480 490 
3 490 480 479 
3 490 479 491 
3 491 479 478 
3 491 478 492 
3 492 478 477 
3 492 477 493 
3 493 477 476 
3 493 476 494 
3 494 476 475 
3 494 475 495 
3 495 475 474 
3 495 474 496 
3 496 474 473 
3 496 473 497 
3 497 473 472 
3 497 472 498 
3 498 472 471 
3 498 471 499 
3 499 471 470 
3 499 470 500 
3 500 470 469 
3 500 469 501 
3 501 469 468 
3 501 468 502 
3 502 468 467 
3 502 467 503 
3 503 467 466 
3 503 466 504 
3 504 466 465 
3 504 465 505 
3 505 465 464 
3 505 464 506 
3 506 464 463 
3 506 463 507 
3 507 463 462 
3 507 462 508 
3 508 462 461 
3 508 461 509 
3 509 461 460 
3 509 460 510 
3 510 460 459 
3 510 459 511 
3 511 459 458 
3 511 458 512 
3 512 458 457 
3 512 457 513 
3 513 457 456 
3 513 456 514 
3 514 456 455 
3 514 455 515 
3 515 455 453 
3 515 453 516 
3 516 453 454 
3 516 454 485 
3 502 517 501 
3 501 517 500 
3 500 517 499 
3 499 517 498 
3 498 517 497 
3 497 517 496 
3 496 517 495 
3 495 517 494 
3 494 517 493 
3 493 517 492 
3 492 517 491 
3 491 517 490 
3 490 517 489 
3 489 517 488 
3 488 517 487 
3 487 517 486 
3 486 517 485 
3 517 516 485 
3 516 517 515 
3 515 517 514 
3 514 517 513 
3 513 517 512 
3 512 517 511 
3 511 517 510 
3 510 517 509 
3 509 517 508 
3 508 517 507 
3 507 517 506 
3 506 517 505 
3 505 517 504 
3 504 517 503 
3 503 517 502 
